<svg xmlns="http://www.w3.org/2000/svg" viewBox="0 0 200 200" width="200" height="200">
  <defs>
    <radialGradient id="bg-luna" cx="50%" cy="50%" r="50%">
      <stop offset="0%" stop-color="#fef3c7"/>
      <stop offset="100%" stop-color="#fcd34d"/>
    </radialGradient>
  </defs>
  <!-- Background -->
  <circle cx="100" cy="100" r="100" fill="url(#bg-luna)"/>
  <!-- Body -->
  <ellipse cx="100" cy="125" rx="14" ry="20" fill="#a0522d" stroke="#8b4513" stroke-width="1"/>
  <!-- Body stripes -->
  <path d="M90 118 Q100 116 110 118" fill="none" stroke="#8b4513" stroke-width="0.8" opacity="0.5"/>
  <path d="M88 126 Q100 124 112 126" fill="none" stroke="#8b4513" stroke-width="0.8" opacity="0.5"/>
  <!-- Wings - left -->
  <path d="M50 55 Q20 80 40 120 Q55 105 70 85 Q60 70 50 55Z" fill="#f59e0b" stroke="#d97706" stroke-width="1.2" opacity="0.9"/>
  <!-- Wing pattern left -->
  <path d="M42 75 Q55 80 65 85" fill="none" stroke="#92400e" stroke-width="0.8" opacity="0.4"/>
  <path d="M38 90 Q52 92 62 90" fill="none" stroke="#92400e" stroke-width="0.8" opacity="0.4"/>
  <circle cx="45" cy="82" r="5" fill="#fbbf24" opacity="0.5"/>
  <circle cx="52" cy="70" r="4" fill="#fcd34d" opacity="0.4"/>
  <circle cx="38" cy="95" r="3.5" fill="#fbbf24" opacity="0.4"/>
  <!-- Upper left wing -->
  <path d="M55 50 Q30 30 55 55" fill="#fbbf24" stroke="#d97706" stroke-width="1" opacity="0.7"/>
  <!-- Wings - right -->
  <path d="M150 55 Q180 80 160 120 Q145 105 130 85 Q140 70 150 55Z" fill="#f59e0b" stroke="#d97706" stroke-width="1.2" opacity="0.9"/>
  <!-- Wing pattern right -->
  <path d="M158 75 Q145 80 135 85" fill="none" stroke="#92400e" stroke-width="0.8" opacity="0.4"/>
  <path d="M162 90 Q148 92 138 90" fill="none" stroke="#92400e" stroke-width="0.8" opacity="0.4"/>
  <circle cx="155" cy="82" r="5" fill="#fbbf24" opacity="0.5"/>
  <circle cx="148" cy="70" r="4" fill="#fcd34d" opacity="0.4"/>
  <circle cx="162" cy="95" r="3.5" fill="#fbbf24" opacity="0.4"/>
  <!-- Upper right wing -->
  <path d="M145 50 Q170 30 145 55" fill="#fbbf24" stroke="#d97706" stroke-width="1" opacity="0.7"/>
  <!-- Head -->
  <circle cx="100" cy="90" r="22" fill="#a0522d" stroke="#8b4513" stroke-width="1.2"/>
  <!-- Antennae -->
  <path d="M90 70 Q85 45 78 38" fill="none" stroke="#8b4513" stroke-width="1.5" stroke-linecap="round"/>
  <circle cx="78" cy="38" r="4" fill="#f59e0b" stroke="#d97706" stroke-width="0.8"/>
  <path d="M110 70 Q115 45 122 38" fill="none" stroke="#8b4513" stroke-width="1.5" stroke-linecap="round"/>
  <circle cx="122" cy="38" r="4" fill="#f59e0b" stroke="#d97706" stroke-width="0.8"/>
  <!-- Eyes -->
  <circle cx="91" cy="86" r="7" fill="white" stroke="#6b3a10" stroke-width="0.8"/>
  <circle cx="109" cy="86" r="7" fill="white" stroke="#6b3a10" stroke-width="0.8"/>
  <circle cx="92" cy="86" r="4" fill="#1a1a1a"/>
  <circle cx="110" cy="86" r="4" fill="#1a1a1a"/>
  <circle cx="90" cy="84" r="1.8" fill="white" opacity="0.9"/>
  <circle cx="108" cy="84" r="1.8" fill="white" opacity="0.9"/>
  <!-- Smile -->
  <path d="M94 97 Q100 103 106 97" fill="none" stroke="#6b3a10" stroke-width="1.2" stroke-linecap="round"/>
  <!-- Blush -->
  <ellipse cx="80" cy="94" rx="5" ry="3" fill="#f59e0b" opacity="0.25"/>
  <ellipse cx="120" cy="94" rx="5" ry="3" fill="#f59e0b" opacity="0.25"/>
  <!-- Legs -->
  <line x1="93" y1="142" x2="88" y2="158" stroke="#8b4513" stroke-width="1.5" stroke-linecap="round"/>
  <line x1="97" y1="143" x2="94" y2="160" stroke="#8b4513" stroke-width="1.5" stroke-linecap="round"/>
  <line x1="103" y1="143" x2="106" y2="160" stroke="#8b4513" stroke-width="1.5" stroke-linecap="round"/>
  <line x1="107" y1="142" x2="112" y2="158" stroke="#8b4513" stroke-width="1.5" stroke-linecap="round"/>
  <!-- Sparkles around -->
  <path d="M30 40 L32 35 L34 40 L32 45Z" fill="#f59e0b" opacity="0.4"/>
  <path d="M165 35 L167 30 L169 35 L167 40Z" fill="#f59e0b" opacity="0.4"/>
  <path d="M25 140 L27 136 L29 140 L27 144Z" fill="#f59e0b" opacity="0.3"/>
  <path d="M175 140 L177 136 L179 140 L177 144Z" fill="#f59e0b" opacity="0.3"/>
</svg>